<svg width="20" height="20" viewBox="0 0 20 20" fill="none" xmlns="http://www.w3.org/2000/svg">
<path d="M1.66699 18.3337L5.00033 15.0003H13.3337C14.2503 15.0003 15.0003 14.2503 15.0003 13.3337V11.667L18.3337 15.0003V3.33366C18.3337 2.41699 17.5837 1.66699 16.667 1.66699H6.66699C5.75033 1.66699 5.00033 2.41699 5.00033 3.33366V5.00033H3.33366C2.41699 5.00033 1.66699 5.75033 1.66699 6.66699V18.3337ZM6.66699 3.33366H16.667V10.9766L15.6907 10.0003H6.66699V3.33366ZM3.33366 6.66699H5.00033V10.0003C5.00033 10.917 5.75033 11.667 6.66699 11.667H13.3337V13.3337H4.30991L3.33366 14.3099V6.66699Z" fill="white"/>
</svg>
