<svg width="17" height="16" viewBox="0 0 17 16" fill="none" xmlns="http://www.w3.org/2000/svg">
<g clip-path="url(#clip0_1040:8904)">
<path d="M16.1047 4.70404C16.0672 3.8539 15.9297 3.26944 15.7328 2.76299C15.5296 2.22541 15.217 1.74412 14.8075 1.34401C14.4074 0.937683 13.923 0.621948 13.3916 0.421957C12.8822 0.22502 12.3008 0.0875415 11.4507 0.0500586C10.5942 0.00940124 10.3223 0 8.14999 0C5.97769 0 5.70579 0.00940124 4.85247 0.0468842C4.00233 0.0843671 3.41787 0.221967 2.91155 0.418783C2.37384 0.621948 1.89255 0.934509 1.49245 1.34401C1.08612 1.74412 0.770506 2.22858 0.570394 2.75994C0.373457 3.26944 0.235979 3.85073 0.198496 4.70087C0.157839 5.55736 0.148438 5.82926 0.148438 8.00156C0.148438 10.1739 0.157839 10.4458 0.195322 11.2991C0.232804 12.1492 0.370404 12.7337 0.567342 13.2401C0.770506 13.7777 1.08612 14.259 1.49245 14.6591C1.89255 15.0654 2.37702 15.3812 2.90837 15.5812C3.41787 15.7781 3.99916 15.9156 4.84942 15.9531C5.70261 15.9907 5.97464 16 8.14694 16C10.3192 16 10.5911 15.9907 11.4444 15.9531C12.2946 15.9156 12.8791 15.7781 13.3854 15.5812C14.4607 15.1654 15.3108 14.3153 15.7265 13.2401C15.9233 12.7306 16.0609 12.1492 16.0984 11.2991C16.1359 10.4458 16.1453 10.1739 16.1453 8.00156C16.1453 5.82926 16.1421 5.55736 16.1047 4.70404ZM14.6638 11.2366C14.6294 12.018 14.4981 12.4399 14.3887 12.7212C14.1199 13.4183 13.5667 13.9715 12.8697 14.2403C12.5883 14.3497 12.1633 14.481 11.385 14.5153C10.5411 14.5529 10.288 14.5622 8.15316 14.5622C6.01835 14.5622 5.76207 14.5529 4.92121 14.5153C4.13981 14.481 3.71785 14.3497 3.43655 14.2403C3.08968 14.1121 2.77395 13.909 2.51767 13.6433C2.25199 13.3838 2.04883 13.0713 1.92063 12.7244C1.81124 12.4431 1.67998 12.018 1.64568 11.2397C1.60807 10.3958 1.59879 10.1426 1.59879 8.00779C1.59879 5.87297 1.60807 5.6167 1.64568 4.77596C1.67998 3.99455 1.81124 3.5726 1.92063 3.29129C2.04883 2.9443 2.25199 2.62869 2.52085 2.37229C2.78017 2.10661 3.09273 1.90345 3.43972 1.77537C3.72103 1.66597 4.14616 1.53472 4.92439 1.50029C5.7683 1.46281 6.02152 1.45341 8.15621 1.45341C10.2942 1.45341 10.5473 1.46281 11.3882 1.50029C12.1696 1.53472 12.5915 1.66597 12.8728 1.77537C13.2197 1.90345 13.5354 2.10661 13.7917 2.37229C14.0574 2.63174 14.2605 2.9443 14.3887 3.29129C14.4981 3.5726 14.6294 3.99761 14.6638 4.77596C14.7013 5.61987 14.7107 5.87297 14.7107 8.00779C14.7107 10.1426 14.7013 10.3927 14.6638 11.2366Z" fill="white"/>
<path d="M8.14924 3.89111C5.88012 3.89111 4.03906 5.73205 4.03906 8.00129C4.03906 10.2705 5.88012 12.1115 8.14924 12.1115C10.4185 12.1115 12.2594 10.2705 12.2594 8.00129C12.2594 5.73205 10.4185 3.89111 8.14924 3.89111ZM8.14924 10.6675C6.67715 10.6675 5.48307 9.4735 5.48307 8.00129C5.48307 6.52908 6.67715 5.33512 8.14924 5.33512C9.62145 5.33512 10.8154 6.52908 10.8154 8.00129C10.8154 9.4735 9.62145 10.6675 8.14924 10.6675V10.6675Z" fill="white"/>
<path d="M13.3841 3.72907C13.3841 4.25896 12.9544 4.68861 12.4244 4.68861C11.8945 4.68861 11.4648 4.25896 11.4648 3.72907C11.4648 3.19906 11.8945 2.76953 12.4244 2.76953C12.9544 2.76953 13.3841 3.19906 13.3841 3.72907V3.72907Z" fill="white"/>
</g>
<defs>
<clipPath id="clip0_1040:8904">
<rect width="16" height="16" fill="white" transform="translate(0.121094)"/>
</clipPath>
</defs>
</svg>
