<svg width="17" height="16" viewBox="0 0 17 16" fill="none" xmlns="http://www.w3.org/2000/svg">
<g clip-path="url(#clip0_1093:19916)">
<path d="M16.1051 4.70404C16.0677 3.8539 15.9302 3.26944 15.7332 2.76299C15.5301 2.22541 15.2175 1.74412 14.808 1.34401C14.4079 0.937683 13.9234 0.621948 13.3921 0.421957C12.8827 0.22502 12.3013 0.0875415 11.4512 0.0500586C10.5947 0.00940124 10.3228 0 8.15048 0C5.97818 0 5.70628 0.00940124 4.85296 0.0468842C4.00282 0.0843671 3.41836 0.221967 2.91203 0.418783C2.37433 0.621948 1.89304 0.934509 1.49294 1.34401C1.08661 1.74412 0.770995 2.22858 0.570883 2.75994C0.373945 3.26944 0.236467 3.85073 0.198984 4.70087C0.158327 5.55736 0.148926 5.82926 0.148926 8.00156C0.148926 10.1739 0.158327 10.4458 0.19581 11.2991C0.233293 12.1492 0.370893 12.7337 0.56783 13.2401C0.770995 13.7777 1.08661 14.259 1.49294 14.6591C1.89304 15.0654 2.37751 15.3812 2.90886 15.5812C3.41836 15.7781 3.99965 15.9156 4.84991 15.9531C5.7031 15.9907 5.97513 16 8.14742 16C10.3197 16 10.5916 15.9907 11.4449 15.9531C12.2951 15.9156 12.8795 15.7781 13.3859 15.5812C14.4611 15.1654 15.3113 14.3153 15.727 13.2401C15.9238 12.7306 16.0614 12.1492 16.0989 11.2991C16.1364 10.4458 16.1458 10.1739 16.1458 8.00156C16.1458 5.82926 16.1426 5.55736 16.1051 4.70404ZM14.6643 11.2366C14.6299 12.018 14.4986 12.4399 14.3892 12.7212C14.1204 13.4183 13.5672 13.9715 12.8701 14.2403C12.5888 14.3497 12.1638 14.481 11.3855 14.5153C10.5416 14.5529 10.2885 14.5622 8.15365 14.5622C6.01884 14.5622 5.76256 14.5529 4.9217 14.5153C4.1403 14.481 3.71834 14.3497 3.43704 14.2403C3.09017 14.1121 2.77443 13.909 2.51816 13.6433C2.25248 13.3838 2.04932 13.0713 1.92112 12.7244C1.81172 12.4431 1.68047 12.018 1.64616 11.2397C1.60856 10.3958 1.59928 10.1426 1.59928 8.00779C1.59928 5.87297 1.60856 5.6167 1.64616 4.77596C1.68047 3.99455 1.81172 3.5726 1.92112 3.29129C2.04932 2.9443 2.25248 2.62869 2.52133 2.37229C2.78066 2.10661 3.09322 1.90345 3.44021 1.77537C3.72152 1.66597 4.14665 1.53472 4.92488 1.50029C5.76879 1.46281 6.02201 1.45341 8.1567 1.45341C10.2947 1.45341 10.5478 1.46281 11.3887 1.50029C12.1701 1.53472 12.592 1.66597 12.8733 1.77537C13.2202 1.90345 13.5359 2.10661 13.7922 2.37229C14.0579 2.63174 14.261 2.9443 14.3892 3.29129C14.4986 3.5726 14.6299 3.99761 14.6643 4.77596C14.7018 5.61987 14.7112 5.87297 14.7112 8.00779C14.7112 10.1426 14.7018 10.3927 14.6643 11.2366Z" fill="#1C1C1C"/>
<path d="M8.14875 3.89062C5.87963 3.89062 4.03857 5.73156 4.03857 8.0008C4.03857 10.27 5.87963 12.111 8.14875 12.111C10.418 12.111 12.2589 10.27 12.2589 8.0008C12.2589 5.73156 10.418 3.89062 8.14875 3.89062ZM8.14875 10.667C6.67666 10.667 5.48258 9.47301 5.48258 8.0008C5.48258 6.52859 6.67666 5.33463 8.14875 5.33463C9.62096 5.33463 10.8149 6.52859 10.8149 8.0008C10.8149 9.47301 9.62096 10.667 8.14875 10.667Z" fill="#1C1C1C"/>
<path d="M13.3831 3.72907C13.3831 4.25896 12.9534 4.68861 12.4234 4.68861C11.8935 4.68861 11.4639 4.25896 11.4639 3.72907C11.4639 3.19906 11.8935 2.76953 12.4234 2.76953C12.9534 2.76953 13.3831 3.19906 13.3831 3.72907Z" fill="#1C1C1C"/>
</g>
<defs>
<clipPath id="clip0_1093:19916">
<rect width="16" height="16" fill="white" transform="translate(0.120605)"/>
</clipPath>
</defs>
</svg>
