<svg width="108" height="50" viewBox="0 0 108 50" fill="none" xmlns="http://www.w3.org/2000/svg">
<path d="M98.5791 1.58677C98.8163 1.58677 99.0197 1.51924 99.1891 1.35044C99.3585 1.18163 99.4263 1.01283 99.4263 0.776502C99.4263 0.540176 99.3585 0.371371 99.1891 0.236327C99.0197 0.101283 98.8163 0 98.5791 0C98.3419 0 98.1386 0.0675219 97.9692 0.236327C97.7997 0.405132 97.7319 0.573937 97.7319 0.810263C97.7319 1.04659 97.7997 1.21539 97.9692 1.3842C98.1725 1.51924 98.3419 1.58677 98.5791 1.58677Z" fill="white"/>
<path d="M37.2764 6.24561H32.1255V36.4279H37.2764V6.24561Z" fill="white"/>
<path d="M81.8722 24.3078C80.7539 23.9364 79.2967 23.6325 77.5346 23.3625C75.7724 23.0586 74.4847 22.7548 73.6375 22.3834C72.7903 22.0458 72.3836 21.4718 72.3836 20.6278C72.3836 19.8851 72.7903 19.2774 73.5697 18.8385C74.3491 18.3996 75.5013 18.1633 76.9924 18.1633C79.3306 18.1633 81.4316 18.7034 83.2955 19.8176L85.261 15.935C84.3121 15.3611 83.0583 14.8885 81.5672 14.5508C80.0423 14.2132 78.5512 14.0444 77.0263 14.0444C74.0441 14.0444 71.7059 14.6521 69.9776 15.9013C68.2494 17.1504 67.3683 18.8047 67.3683 20.8979C67.3683 22.4847 67.7749 23.7338 68.6221 24.6116C69.4693 25.4894 70.4521 26.1309 71.6042 26.4685C72.7564 26.8398 74.2136 27.1437 76.0435 27.4138C77.7718 27.6839 79.0256 27.9877 79.805 28.2916C80.5845 28.5954 80.9911 29.1356 80.9911 29.8783C80.9911 31.4989 79.4662 32.3091 76.3824 32.3091C75.0269 32.3091 73.6714 32.1065 72.282 31.7014C70.8926 31.2963 69.7065 30.7899 68.7238 30.1147L66.7583 33.9972C67.7749 34.7061 69.1304 35.2801 70.8248 35.7527C72.5192 36.2254 74.2814 36.4617 76.0435 36.4617C79.1273 36.4617 81.5333 35.854 83.3294 34.6049C85.1254 33.3895 86.0065 31.7352 86.0065 29.6758C86.0065 28.1228 85.5998 26.9074 84.7865 26.0633C83.9732 25.2531 83.0244 24.6454 81.8722 24.3078Z" fill="white"/>
<path d="M103.9 24.3078C102.781 23.9364 101.324 23.6325 99.5619 23.3625C97.7998 23.0586 96.512 22.7548 95.6648 22.3834C94.8176 22.0458 94.411 21.4718 94.411 20.6278C94.411 19.8851 94.8176 19.2774 95.5971 18.8385C96.3765 18.3996 97.5287 18.1633 99.0197 18.1633C101.358 18.1633 103.459 18.7034 105.323 19.8176L107.288 15.935C106.339 15.3611 105.086 14.8885 103.595 14.5508C102.07 14.2132 100.579 14.0444 99.0536 14.0444C96.0715 14.0444 93.7332 14.6521 92.005 15.9013C90.2767 17.1504 89.3956 18.8047 89.3956 20.8979C89.3956 22.4847 89.8023 23.7338 90.6495 24.6116C91.4967 25.4894 92.4794 26.1309 93.6316 26.4685C94.7838 26.8398 96.2409 27.1437 98.0709 27.4138C99.7991 27.6839 101.053 27.9877 101.832 28.2916C102.612 28.5954 103.018 29.1356 103.018 29.8783C103.018 31.4989 101.494 32.3091 98.4097 32.3091C97.0542 32.3091 95.6987 32.1065 94.3093 31.7014C92.9199 31.2963 91.7339 30.7899 90.7511 30.1147L88.7856 33.9972C89.8023 34.7061 91.1578 35.2801 92.8522 35.7527C94.5465 36.2254 96.3087 36.4617 98.0709 36.4617C101.155 36.4617 103.561 35.854 105.357 34.6049C107.153 33.3895 108.034 31.7352 108.034 29.6758C108.034 28.1228 107.627 26.9074 106.814 26.0633C105.967 25.2531 105.018 24.6454 103.9 24.3078Z" fill="white"/>
<path d="M70.4527 8.71028C70.0122 8.71028 69.5716 8.64276 69.165 8.50771C68.7245 8.37267 68.3856 8.20386 68.0806 8.0013L67.5723 8.98037C67.8773 9.21669 68.25 9.3855 68.7922 9.5543C69.3005 9.68935 69.8427 9.79063 70.3849 9.79063C71.2999 9.79063 72.0116 9.62182 72.5199 9.25045C73.0621 8.87908 73.2993 8.40643 73.2993 7.79873C73.2993 7.32608 73.1637 6.98847 72.9265 6.71838C72.6893 6.44829 72.3843 6.27949 72.0454 6.1782C71.7066 6.07692 71.266 5.97564 70.7238 5.87436C70.3172 5.80683 69.9783 5.73931 69.775 5.67179C69.5378 5.60427 69.3683 5.50299 69.1989 5.4017C69.0294 5.26666 68.9617 5.09785 68.9617 4.86153C68.9617 4.59144 69.0972 4.35511 69.3683 4.18631C69.6394 4.0175 70.0461 3.91622 70.5544 3.91622C71.2999 3.91622 71.9777 4.08502 72.5199 4.45639L73.0621 3.47733C72.7571 3.27476 72.3843 3.13972 71.9438 3.03843C71.5032 2.93715 71.0288 2.86963 70.5883 2.86963C69.7072 2.86963 69.0294 3.03843 68.5211 3.4098C68.0128 3.78118 67.7417 4.28759 67.7417 4.89529C67.7417 5.36794 67.8773 5.73931 68.1145 6.0094C68.3517 6.27949 68.6567 6.44829 68.9956 6.58334C69.3344 6.68462 69.775 6.7859 70.3511 6.88719C70.7577 6.95471 71.0627 7.02223 71.266 7.05599C71.4694 7.12351 71.6727 7.19103 71.8082 7.32608C71.9438 7.46112 72.0116 7.59617 72.0116 7.79873C72.0793 8.40643 71.5371 8.71028 70.4527 8.71028Z" fill="white"/>
<path d="M75.5692 7.62999C75.5692 8.30521 75.7725 8.84538 76.1453 9.21675C76.518 9.58812 77.0602 9.75693 77.738 9.75693C78.0091 9.75693 78.2802 9.72317 78.5513 9.62188C78.8224 9.55436 79.0257 9.41932 79.229 9.28427L78.8563 8.40649C78.5852 8.60905 78.2802 8.71034 77.9074 8.71034C77.5685 8.71034 77.2974 8.60905 77.128 8.40649C76.9586 8.20392 76.8569 7.93384 76.8569 7.56246V3.91628H78.8224V2.90345H76.8569V1.41797H75.5692V2.90345H74.417V3.91628H75.5692V7.62999Z" fill="white"/>
<path d="M85.8038 6.41446C85.8038 7.12344 85.6004 7.69738 85.2277 8.06875C84.8549 8.47388 84.3466 8.64268 83.7027 8.64268C83.1266 8.64268 82.6522 8.47388 82.3472 8.13627C82.0422 7.79866 81.8728 7.29225 81.8728 6.65079V2.90332H80.6528V6.81959C80.6528 7.79866 80.9239 8.5414 81.4322 9.01406C81.9406 9.52047 82.6861 9.7568 83.5672 9.7568C84.0416 9.7568 84.4821 9.65551 84.8888 9.45295C85.2954 9.25038 85.6343 8.98029 85.8715 8.64268V9.65551H87.0237V2.90332H85.8038V6.41446Z" fill="white"/>
<path d="M90.4464 9.3181C90.9547 9.62195 91.5647 9.75699 92.2086 9.75699C92.7169 9.75699 93.1913 9.65571 93.598 9.45314C94.0046 9.25058 94.3774 8.98049 94.6485 8.60912V9.68947H95.8346V0.202637H94.6146V3.9501C94.3435 3.57873 94.0046 3.30865 93.598 3.13984C93.1913 2.97104 92.7508 2.86975 92.2425 2.86975C91.5986 2.86975 90.9886 3.0048 90.4803 3.30865C89.972 3.61249 89.5653 4.01763 89.2604 4.52404C88.9554 5.03045 88.8198 5.63815 88.8198 6.31337C88.8198 6.98859 88.9554 7.59629 89.2604 8.13646C89.4976 8.64288 89.9042 9.04801 90.4464 9.3181ZM90.3109 5.06422C90.5142 4.69285 90.7853 4.42276 91.1242 4.22019C91.4631 4.01763 91.8697 3.91634 92.3103 3.91634C92.7508 3.91634 93.1236 4.01763 93.4624 4.22019C93.8013 4.42276 94.0724 4.69285 94.2757 5.06422C94.4791 5.43559 94.5807 5.84072 94.5807 6.31337C94.5807 6.78603 94.4791 7.19116 94.2757 7.56253C94.0724 7.9339 93.8013 8.20399 93.4624 8.40655C93.1236 8.60912 92.7169 8.7104 92.3103 8.7104C91.8697 8.7104 91.4969 8.60912 91.1242 8.40655C90.7853 8.20399 90.5142 7.9339 90.3109 7.56253C90.1076 7.19116 90.0059 6.78603 90.0059 6.31337C90.0059 5.84072 90.1076 5.40183 90.3109 5.06422Z" fill="white"/>
<path d="M99.1892 2.90332H97.9692V9.68928H99.1892V2.90332Z" fill="white"/>
<path d="M102.646 9.31804C103.188 9.62189 103.798 9.75694 104.476 9.75694C105.154 9.75694 105.764 9.62189 106.306 9.31804C106.848 9.0142 107.255 8.60906 107.56 8.06889C107.865 7.52871 108 6.95478 108 6.27956C108 5.60434 107.865 5.0304 107.56 4.49023C107.255 3.95005 106.848 3.54492 106.306 3.27483C105.764 2.97098 105.154 2.83594 104.476 2.83594C103.798 2.83594 103.188 2.97098 102.646 3.27483C102.104 3.57868 101.697 3.98381 101.392 4.49023C101.087 5.0304 100.952 5.60434 100.952 6.27956C100.952 6.95478 101.087 7.52871 101.392 8.06889C101.697 8.60906 102.104 9.0142 102.646 9.31804ZM102.477 5.06416C102.68 4.69279 102.951 4.4227 103.29 4.22014C103.629 4.01757 104.035 3.91629 104.476 3.91629C104.917 3.91629 105.289 4.01757 105.662 4.22014C106.001 4.4227 106.272 4.69279 106.475 5.06416C106.679 5.43553 106.78 5.84066 106.78 6.31332C106.78 6.78597 106.679 7.1911 106.475 7.56247C106.272 7.93384 106.001 8.20393 105.662 8.4065C105.323 8.60906 104.917 8.71035 104.476 8.71035C104.035 8.71035 103.663 8.60906 103.29 8.4065C102.951 8.20393 102.68 7.93384 102.477 7.56247C102.273 7.1911 102.172 6.78597 102.172 6.31332C102.172 5.84066 102.273 5.40177 102.477 5.06416Z" fill="white"/>
<path d="M19.4516 38.2173C16.1984 38.2173 13.5552 40.8506 13.5552 44.0917C13.5552 47.3328 16.1984 49.9661 19.4516 49.9661C22.7048 49.9661 25.3481 47.3328 25.3481 44.0917C25.382 40.8506 22.7048 38.2173 19.4516 38.2173Z" fill="white"/>
<path d="M23.3147 9.75684C21.9931 9.75684 20.807 10.4658 20.1632 11.5124C18.1977 10.3983 15.8933 9.75684 13.4873 9.75684C6.032 9.75684 0 15.7663 0 23.1937C0 30.6211 6.032 36.6306 13.4873 36.6306C20.9426 36.6306 26.9746 30.6211 26.9746 23.1937C26.9746 20.7629 26.3307 18.5009 25.2124 16.5428C26.2629 15.9013 26.9746 14.7535 26.9746 13.403C26.9746 11.4111 25.348 9.75684 23.3147 9.75684ZM13.4873 31.4651C8.91246 31.4651 5.18481 27.7514 5.18481 23.1937C5.18481 18.636 8.91246 14.9223 13.4873 14.9223C18.0621 14.9223 21.7898 18.636 21.7898 23.1937C21.7898 27.7514 18.0621 31.4651 13.4873 31.4651Z" fill="white"/>
<path d="M59.8455 16.3739C58.3545 15.0572 56.3212 14.3145 53.7119 14.1119C53.2713 14.0781 52.7969 14.0781 52.2886 14.0781C51.848 14.0781 51.4414 14.0781 51.0008 14.1119C49.6114 14.1794 48.2898 14.4157 47.036 14.7871C45.3755 15.2598 43.9861 15.935 42.8 16.8128L43.7828 18.6359L44.8333 20.5602C45.6805 19.885 46.6971 19.3448 47.9171 18.9735C49.137 18.6021 50.357 18.3995 51.6108 18.3995C53.4408 18.3995 54.8301 18.8047 55.779 19.6149C56.7279 20.4252 57.1684 21.6068 57.1684 23.1598V23.4974H51.3736C48.1543 23.4974 45.816 24.1051 44.325 25.2868C43.5456 25.8945 42.9695 26.6372 42.5967 27.4475C42.2578 28.224 42.0884 29.068 42.0884 30.0133C42.0884 31.2625 42.4273 32.4103 43.105 33.3894C43.7828 34.4022 44.7655 35.1787 46.0194 35.7189C47.2732 36.2928 48.7304 36.5629 50.4248 36.5629C52.0852 36.5629 53.5424 36.2928 54.7285 35.7864C55.9146 35.28 56.8295 34.5373 57.4734 33.592V36.2591H62.421V24.1389V23.3624C62.4549 20.2564 61.5738 17.8931 59.8455 16.3739ZM57.2023 29.3381C56.7956 30.4184 56.0501 31.2625 55.0335 31.8702C54.0168 32.4441 52.8308 32.7479 51.543 32.7479C50.1875 32.7479 49.137 32.4779 48.3915 31.9377C47.646 31.3975 47.2732 30.6548 47.2732 29.7095C47.2732 27.7513 48.7981 26.806 51.8141 26.806H57.2362V29.3381H57.2023Z" fill="white"/>
</svg>
