<svg width="108" height="50" viewBox="0 0 108 50" fill="none" xmlns="http://www.w3.org/2000/svg">
<g clip-path="url(#clip0_226_16)">
<path d="M37.2764 6.24609H32.1255V36.4284H37.2764V6.24609Z" fill="white"/>
<path d="M81.8724 24.3083C80.7541 23.9369 79.297 23.633 77.5348 23.3629C75.7727 23.0591 74.4849 22.7553 73.6377 22.3839C72.7905 22.0463 72.3839 21.4723 72.3839 20.6283C72.3839 19.8856 72.7905 19.2779 73.57 18.839C74.3494 18.4001 75.5016 18.1638 76.9926 18.1638C79.3309 18.1638 81.4319 18.7039 83.2957 19.818L85.2612 15.9355C84.3123 15.3616 83.0585 14.8889 81.5674 14.5513C80.0425 14.2137 78.5514 14.0449 77.0265 14.0449C74.0444 14.0449 71.7061 14.6526 69.9779 15.9018C68.2496 17.1509 67.3685 18.8052 67.3685 20.8984C67.3685 22.4852 67.7752 23.7343 68.6224 24.6121C69.4696 25.4899 70.4523 26.1313 71.6045 26.469C72.7567 26.8403 74.2138 27.1442 76.0438 27.4143C77.772 27.6844 79.0259 27.9882 79.8053 28.292C80.5847 28.5959 80.9914 29.1361 80.9914 29.8788C80.9914 31.4993 79.4664 32.3096 76.3826 32.3096C75.0271 32.3096 73.6716 32.107 72.2822 31.7019C70.8928 31.2968 69.7068 30.7904 68.724 30.1151L66.7585 33.9977C67.7752 34.7066 69.1307 35.2806 70.8251 35.7532C72.5194 36.2259 74.2816 36.4622 76.0438 36.4622C79.1275 36.4622 81.5336 35.8545 83.3296 34.6053C85.1256 33.39 86.0067 31.7357 86.0067 29.6762C86.0067 28.1232 85.6001 26.9078 84.7868 26.0638C83.9735 25.2536 83.0246 24.6459 81.8724 24.3083Z" fill="white"/>
<path d="M103.9 24.3083C102.781 23.9369 101.324 23.633 99.5619 23.3629C97.7998 23.0591 96.512 22.7553 95.6648 22.3839C94.8176 22.0463 94.411 21.4723 94.411 20.6283C94.411 19.8856 94.8176 19.2779 95.5971 18.839C96.3765 18.4001 97.5287 18.1638 99.0197 18.1638C101.358 18.1638 103.459 18.7039 105.323 19.818L107.288 15.9355C106.339 15.3616 105.086 14.8889 103.595 14.5513C102.07 14.2137 100.579 14.0449 99.0536 14.0449C96.0715 14.0449 93.7332 14.6526 92.005 15.9018C90.2767 17.1509 89.3956 18.8052 89.3956 20.8984C89.3956 22.4852 89.8023 23.7343 90.6495 24.6121C91.4967 25.4899 92.4794 26.1313 93.6316 26.469C94.7838 26.8403 96.2409 27.1442 98.0709 27.4143C99.7991 27.6844 101.053 27.9882 101.832 28.292C102.612 28.5959 103.018 29.1361 103.018 29.8788C103.018 31.4993 101.494 32.3096 98.4097 32.3096C97.0542 32.3096 95.6987 32.107 94.3093 31.7019C92.9199 31.2968 91.7339 30.7904 90.7511 30.1151L88.7856 33.9977C89.8023 34.7066 91.1578 35.2806 92.8522 35.7532C94.5465 36.2259 96.3087 36.4622 98.0709 36.4622C101.155 36.4622 103.561 35.8545 105.357 34.6053C107.153 33.39 108.034 31.7357 108.034 29.6762C108.034 28.1232 107.627 26.9078 106.814 26.0638C105.967 25.2536 105.018 24.6459 103.9 24.3083Z" fill="white"/>
<path d="M19.4516 38.2178C16.1984 38.2178 13.5552 40.8511 13.5552 44.0922C13.5552 47.3332 16.1984 49.9666 19.4516 49.9666C22.7048 49.9666 25.3481 47.3332 25.3481 44.0922C25.382 40.8511 22.7048 38.2178 19.4516 38.2178Z" fill="white"/>
<path d="M23.3147 9.75684C21.9931 9.75684 20.807 10.4658 20.1632 11.5124C18.1977 10.3983 15.8933 9.75684 13.4873 9.75684C6.032 9.75684 0 15.7663 0 23.1937C0 30.6211 6.032 36.6306 13.4873 36.6306C20.9426 36.6306 26.9746 30.6211 26.9746 23.1937C26.9746 20.7629 26.3307 18.5009 25.2124 16.5428C26.2629 15.9013 26.9746 14.7535 26.9746 13.403C26.9746 11.4111 25.348 9.75684 23.3147 9.75684ZM13.4873 31.4651C8.91246 31.4651 5.18481 27.7514 5.18481 23.1937C5.18481 18.636 8.91246 14.9223 13.4873 14.9223C18.0621 14.9223 21.7898 18.636 21.7898 23.1937C21.7898 27.7514 18.0621 31.4651 13.4873 31.4651Z" fill="white"/>
<path d="M59.8455 16.3739C58.3545 15.0572 56.3212 14.3145 53.7119 14.1119C53.2713 14.0781 52.7969 14.0781 52.2886 14.0781C51.848 14.0781 51.4414 14.0781 51.0008 14.1119C49.6114 14.1794 48.2898 14.4157 47.036 14.7871C45.3755 15.2598 43.9861 15.935 42.8 16.8128L43.7828 18.6359L44.8333 20.5602C45.6805 19.885 46.6971 19.3448 47.9171 18.9735C49.137 18.6021 50.357 18.3995 51.6108 18.3995C53.4408 18.3995 54.8301 18.8047 55.779 19.6149C56.7279 20.4252 57.1684 21.6068 57.1684 23.1598V23.4974H51.3736C48.1543 23.4974 45.816 24.1051 44.325 25.2868C43.5456 25.8945 42.9695 26.6372 42.5967 27.4475C42.2578 28.224 42.0884 29.068 42.0884 30.0133C42.0884 31.2625 42.4273 32.4103 43.105 33.3894C43.7828 34.4022 44.7655 35.1787 46.0194 35.7189C47.2732 36.2928 48.7304 36.5629 50.4248 36.5629C52.0852 36.5629 53.5424 36.2928 54.7285 35.7864C55.9146 35.28 56.8295 34.5373 57.4734 33.592V36.2591H62.421V24.1389V23.3624C62.4549 20.2564 61.5738 17.8931 59.8455 16.3739ZM57.2023 29.3381C56.7956 30.4184 56.0501 31.2625 55.0335 31.8702C54.0168 32.4441 52.8308 32.7479 51.543 32.7479C50.1875 32.7479 49.137 32.4779 48.3915 31.9377C47.646 31.3975 47.2732 30.6548 47.2732 29.7095C47.2732 27.7513 48.7981 26.806 51.8141 26.806H57.2362V29.3381H57.2023Z" fill="white"/>
<path d="M64.4111 2.4873H65.7759V9.37451H64.4111V8.27002C64.1699 8.68473 63.8377 9.00212 63.4146 9.22217C62.9914 9.44645 62.5047 9.55859 61.9546 9.55859C61.3198 9.55859 60.7422 9.39779 60.2217 9.07617C59.7054 8.75456 59.3013 8.31868 59.0093 7.76855C58.7173 7.21419 58.5713 6.6027 58.5713 5.93408C58.5713 5.26546 58.7173 4.65397 59.0093 4.09961C59.3013 3.54525 59.7054 3.10726 60.2217 2.78564C60.7422 2.46403 61.3198 2.30322 61.9546 2.30322C62.5047 2.30322 62.9914 2.41536 63.4146 2.63965C63.8377 2.8597 64.1699 3.17708 64.4111 3.5918V2.4873ZM63.7764 7.70508C64.1995 7.26074 64.4111 6.67041 64.4111 5.93408C64.4111 5.19775 64.1995 4.60954 63.7764 4.16943C63.3532 3.7251 62.8136 3.50293 62.1577 3.50293C61.4976 3.50293 60.9538 3.73779 60.5264 4.20752C60.099 4.67301 59.8853 5.24854 59.8853 5.93408C59.8853 6.61963 60.099 7.19727 60.5264 7.66699C60.9538 8.13249 61.4976 8.36523 62.1577 8.36523C62.8136 8.36523 63.3532 8.14518 63.7764 7.70508ZM71.9966 2.46191V3.70605C71.8146 3.64681 71.5586 3.61719 71.2285 3.61719C70.6234 3.61719 70.124 3.83089 69.7305 4.2583C69.3369 4.68148 69.1401 5.20833 69.1401 5.83887V9.37451H67.7754V2.4873H69.1401V3.78857C69.3179 3.34847 69.5929 2.99935 69.9653 2.74121C70.342 2.48307 70.7736 2.354 71.2603 2.354C71.5565 2.354 71.8019 2.38997 71.9966 2.46191ZM84.4253 5.52783V9.37451H83.0605V5.62305C83.0605 4.9248 82.923 4.39795 82.6479 4.04248C82.3729 3.68278 81.9624 3.50293 81.4165 3.50293C80.8875 3.50293 80.4474 3.72087 80.0962 4.15674C79.7492 4.58838 79.5757 5.111 79.5757 5.72461V9.37451H78.2109V5.62305C78.2109 4.20964 77.665 3.50293 76.5732 3.50293C76.0443 3.50293 75.6042 3.72087 75.2529 4.15674C74.9017 4.58838 74.7261 5.111 74.7261 5.72461V9.37451H73.3613V2.4873H74.7261V3.60449C74.9123 3.21094 75.1916 2.89567 75.564 2.65869C75.9364 2.42171 76.3638 2.30322 76.8462 2.30322C77.4175 2.30322 77.9062 2.43018 78.3125 2.68408C78.7188 2.93799 79.0298 3.31038 79.2456 3.80127C79.4699 3.34001 79.7894 2.97607 80.2041 2.70947C80.6188 2.43864 81.1055 2.30322 81.6641 2.30322C82.5273 2.30322 83.2023 2.58887 83.689 3.16016C84.1799 3.72721 84.4253 4.51644 84.4253 5.52783ZM85.9424 5.93408C85.9424 5.42204 86.0334 4.94173 86.2153 4.49316C86.4015 4.0446 86.6554 3.66162 86.9771 3.34424C87.2987 3.02262 87.6838 2.76872 88.1323 2.58252C88.5851 2.39632 89.0697 2.30322 89.5859 2.30322C90.2757 2.30322 90.8978 2.46191 91.4521 2.7793C92.0065 3.09245 92.4403 3.5262 92.7534 4.08057C93.0666 4.63493 93.2231 5.25277 93.2231 5.93408C93.2231 6.6154 93.0666 7.23324 92.7534 7.7876C92.4403 8.33773 92.0065 8.76937 91.4521 9.08252C90.8978 9.3999 90.2757 9.55859 89.5859 9.55859C88.8962 9.55859 88.272 9.3999 87.7134 9.08252C87.159 8.76937 86.7253 8.33773 86.4121 7.7876C86.099 7.23324 85.9424 6.6154 85.9424 5.93408ZM91.2554 7.66064C91.6912 7.19938 91.9092 6.62386 91.9092 5.93408C91.9092 5.2443 91.6912 4.66878 91.2554 4.20752C90.8195 3.74626 90.263 3.51562 89.5859 3.51562C88.9089 3.51562 88.3503 3.74626 87.9102 4.20752C87.4743 4.66878 87.2563 5.2443 87.2563 5.93408C87.2563 6.62386 87.4743 7.19938 87.9102 7.66064C88.3503 8.12191 88.9089 8.35254 89.5859 8.35254C90.263 8.35254 90.8195 8.12191 91.2554 7.66064ZM100.041 2.4873H101.405V9.37451H100.041V8.25732C99.8501 8.65088 99.5454 8.96615 99.1265 9.20312C98.7118 9.4401 98.2357 9.55859 97.6982 9.55859C96.7715 9.55859 96.0479 9.2793 95.5273 8.7207C95.0111 8.16211 94.7529 7.36654 94.7529 6.33398V2.4873H96.1177V6.24512C96.1177 7.65853 96.7355 8.36523 97.9712 8.36523C98.5594 8.36523 99.0503 8.15153 99.4438 7.72412C99.8416 7.29248 100.041 6.76351 100.041 6.13721V2.4873ZM107.632 2.46191V3.70605C107.45 3.64681 107.194 3.61719 106.864 3.61719C106.259 3.61719 105.76 3.83089 105.366 4.2583C104.973 4.68148 104.776 5.20833 104.776 5.83887V9.37451H103.411V2.4873H104.776V3.78857C104.954 3.34847 105.229 2.99935 105.601 2.74121C105.978 2.48307 106.409 2.354 106.896 2.354C107.192 2.354 107.438 2.38997 107.632 2.46191Z" fill="white"/>
<path d="M64.4111 2.4873V2.4373H64.3611V2.4873H64.4111ZM65.7759 2.4873H65.8259V2.4373H65.7759V2.4873ZM65.7759 9.37451V9.42451H65.8259V9.37451H65.7759ZM64.4111 9.37451H64.3611V9.42451H64.4111V9.37451ZM64.4111 8.27002H64.4611V8.08461L64.3679 8.24488L64.4111 8.27002ZM63.4146 9.22217L63.3915 9.17781L63.3911 9.17799L63.4146 9.22217ZM60.2217 9.07617L60.1952 9.11861L60.1954 9.11871L60.2217 9.07617ZM59.0093 7.76855L58.965 7.79186L58.9651 7.792L59.0093 7.76855ZM60.2217 2.78564L60.1954 2.74311L60.1952 2.74321L60.2217 2.78564ZM63.4146 2.63965L63.3911 2.68383L63.3915 2.68401L63.4146 2.63965ZM64.4111 3.5918L64.3679 3.61694L64.4611 3.77721V3.5918H64.4111ZM63.7764 7.70508L63.8124 7.73973L63.8126 7.73956L63.7764 7.70508ZM63.7764 4.16943L63.7402 4.20392L63.7403 4.20409L63.7764 4.16943ZM60.5264 4.20752L60.5632 4.24134L60.5633 4.24117L60.5264 4.20752ZM60.5264 7.66699L60.4894 7.70064L60.4895 7.70081L60.5264 7.66699ZM64.4111 2.5373H65.7759V2.4373H64.4111V2.5373ZM65.7259 2.4873V9.37451H65.8259V2.4873H65.7259ZM65.7759 9.32451H64.4111V9.42451H65.7759V9.32451ZM64.4611 9.37451V8.27002H64.3611V9.37451H64.4611ZM64.3679 8.24488C64.1314 8.65146 63.8062 8.96215 63.3915 9.17781L63.4376 9.26653C63.8693 9.04208 64.2084 8.71801 64.4544 8.29516L64.3679 8.24488ZM63.3911 9.17799C62.9762 9.39792 62.4978 9.50859 61.9546 9.50859V9.60859C62.5117 9.60859 63.0066 9.49499 63.438 9.26635L63.3911 9.17799ZM61.9546 9.50859C61.3287 9.50859 60.7603 9.35018 60.248 9.03364L60.1954 9.11871C60.7241 9.44539 61.3109 9.60859 61.9546 9.60859V9.50859ZM60.2481 9.03373C59.7395 8.71689 59.3414 8.28765 59.0534 7.74511L58.9651 7.792C59.2611 8.34972 59.6713 8.79222 60.1952 9.11861L60.2481 9.03373ZM59.0535 7.74525C58.7656 7.19856 58.6213 6.59514 58.6213 5.93408H58.5213C58.5213 6.61026 58.669 7.22983 58.965 7.79186L59.0535 7.74525ZM58.6213 5.93408C58.6213 5.27302 58.7656 4.66961 59.0535 4.12291L58.965 4.07631C58.669 4.63833 58.5213 5.2579 58.5213 5.93408H58.6213ZM59.0535 4.12291C59.3415 3.57615 59.7396 3.14486 60.2481 2.82808L60.1952 2.74321C59.6712 3.06965 59.261 3.51435 58.965 4.07631L59.0535 4.12291ZM60.248 2.82818C60.7603 2.51163 61.3287 2.35322 61.9546 2.35322V2.25322C61.3109 2.25322 60.7241 2.41643 60.1954 2.74311L60.248 2.82818ZM61.9546 2.35322C62.4978 2.35322 62.9762 2.4639 63.3911 2.68383L63.438 2.59547C63.0066 2.36683 62.5117 2.25322 61.9546 2.25322V2.35322ZM63.3915 2.68401C63.8062 2.89966 64.1314 3.21036 64.3679 3.61694L64.4544 3.56666C64.2084 3.14381 63.8693 2.81974 63.4376 2.59529L63.3915 2.68401ZM64.4611 3.5918V2.4873H64.3611V3.5918H64.4611ZM63.8126 7.73956C64.2463 7.28412 64.4611 6.68052 64.4611 5.93408H64.3611C64.3611 6.6603 64.1528 7.23736 63.7402 7.6706L63.8126 7.73956ZM64.4611 5.93408C64.4611 5.18766 64.2463 4.58605 63.8124 4.13478L63.7403 4.20409C64.1528 4.63302 64.3611 5.20785 64.3611 5.93408H64.4611ZM63.8126 4.13495C63.3793 3.67997 62.8263 3.45293 62.1577 3.45293V3.55293C62.801 3.55293 63.3271 3.77023 63.7402 4.20392L63.8126 4.13495ZM62.1577 3.45293C61.4841 3.45293 60.9267 3.69327 60.4894 4.17387L60.5633 4.24117C60.9809 3.78231 61.511 3.55293 62.1577 3.55293V3.45293ZM60.4895 4.1737C60.0529 4.64924 59.8353 5.23717 59.8353 5.93408H59.9353C59.9353 5.2599 60.145 4.69679 60.5632 4.24134L60.4895 4.1737ZM59.8353 5.93408C59.8353 6.631 60.0529 7.22094 60.4894 7.70064L60.5633 7.63334C60.145 7.17359 59.9353 6.60826 59.9353 5.93408H59.8353ZM60.4895 7.70081C60.9269 8.17713 61.4843 8.41523 62.1577 8.41523V8.31523C61.5109 8.31523 60.9807 8.08785 60.5632 7.63318L60.4895 7.70081ZM62.1577 8.41523C62.8261 8.41523 63.3791 8.19042 63.8124 7.73973L63.7403 7.67042C63.3273 8.09994 62.8012 8.31523 62.1577 8.31523V8.41523ZM71.9966 2.46191H72.0466V2.42709L72.0139 2.41501L71.9966 2.46191ZM71.9966 3.70605L71.9811 3.7536L72.0466 3.77492V3.70605H71.9966ZM69.7305 4.2583L69.7671 4.29235L69.7673 4.29217L69.7305 4.2583ZM69.1401 9.37451V9.42451H69.1901V9.37451H69.1401ZM67.7754 9.37451H67.7254V9.42451H67.7754V9.37451ZM67.7754 2.4873V2.4373H67.7254V2.4873H67.7754ZM69.1401 2.4873H69.1901V2.4373H69.1401V2.4873ZM69.1401 3.78857H69.0901L69.1865 3.8073L69.1401 3.78857ZM69.9653 2.74121L69.9371 2.69997L69.9368 2.70012L69.9653 2.74121ZM71.9466 2.46191V3.70605H72.0466V2.46191H71.9466ZM72.0121 3.65851C71.8227 3.59687 71.5606 3.56719 71.2285 3.56719V3.66719C71.5566 3.66719 71.8065 3.69674 71.9811 3.7536L72.0121 3.65851ZM71.2285 3.56719C70.6101 3.56719 70.0971 3.78627 69.6937 4.22443L69.7673 4.29217C70.1509 3.87552 70.6367 3.66719 71.2285 3.66719V3.56719ZM69.6939 4.22425C69.2909 4.65756 69.0901 5.19695 69.0901 5.83887H69.1901C69.1901 5.21971 69.3829 4.7054 69.7671 4.29235L69.6939 4.22425ZM69.0901 5.83887V9.37451H69.1901V5.83887H69.0901ZM69.1401 9.32451H67.7754V9.42451H69.1401V9.32451ZM67.8254 9.37451V2.4873H67.7254V9.37451H67.8254ZM67.7754 2.5373H69.1401V2.4373H67.7754V2.5373ZM69.0901 2.4873V3.78857H69.1901V2.4873H69.0901ZM69.1865 3.8073C69.3608 3.37578 69.6298 3.03462 69.9938 2.7823L69.9368 2.70012C69.556 2.96408 69.275 3.32116 69.0938 3.76985L69.1865 3.8073ZM69.9936 2.78245C70.3613 2.5304 70.783 2.404 71.2603 2.404V2.304C70.7642 2.304 70.3226 2.43574 69.9371 2.69997L69.9936 2.78245ZM71.2603 2.404C71.5529 2.404 71.792 2.4396 71.9792 2.50881L72.0139 2.41501C71.8119 2.34035 71.5601 2.304 71.2603 2.304V2.404ZM84.4253 9.37451V9.42451H84.4753V9.37451H84.4253ZM83.0605 9.37451H83.0105V9.42451H83.0605V9.37451ZM82.6479 4.04248L82.6082 4.07285L82.6084 4.07308L82.6479 4.04248ZM80.0962 4.15674L80.0573 4.12537L80.0572 4.12541L80.0962 4.15674ZM79.5757 9.37451V9.42451H79.6257V9.37451H79.5757ZM78.2109 9.37451H78.1609V9.42451H78.2109V9.37451ZM75.2529 4.15674L75.2917 4.1883L75.2919 4.18811L75.2529 4.15674ZM74.7261 9.37451V9.42451H74.7761V9.37451H74.7261ZM73.3613 9.37451H73.3113V9.42451H73.3613V9.37451ZM73.3613 2.4873V2.4373H73.3113V2.4873H73.3613ZM74.7261 2.4873H74.7761V2.4373H74.7261V2.4873ZM74.7261 3.60449H74.6761L74.7713 3.62588L74.7261 3.60449ZM75.564 2.65869L75.5371 2.61651L75.564 2.65869ZM79.2456 3.80127L79.1998 3.82139L79.2433 3.92031L79.2906 3.82313L79.2456 3.80127ZM80.2041 2.70947L80.2311 2.75153L80.2314 2.75134L80.2041 2.70947ZM83.689 3.16016L83.6509 3.19258L83.6512 3.19288L83.689 3.16016ZM84.3753 5.52783V9.37451H84.4753V5.52783H84.3753ZM84.4253 9.32451H83.0605V9.42451H84.4253V9.32451ZM83.1105 9.37451V5.62305H83.0105V9.37451H83.1105ZM83.1105 5.62305C83.1105 4.9195 82.9722 4.37978 82.6875 4.01188L82.6084 4.07308C82.8739 4.41612 83.0105 4.93011 83.0105 5.62305H83.1105ZM82.6877 4.01211C82.4012 3.63745 81.9744 3.45293 81.4165 3.45293V3.55293C81.9504 3.55293 82.3446 3.72811 82.6082 4.07285L82.6877 4.01211ZM81.4165 3.45293C80.8714 3.45293 80.4174 3.6785 80.0573 4.12537L80.1351 4.18811C80.4775 3.76323 80.9036 3.55293 81.4165 3.55293V3.45293ZM80.0572 4.12541C79.7023 4.5669 79.5257 5.10091 79.5257 5.72461H79.6257C79.6257 5.12109 79.7961 4.60986 80.1352 4.18807L80.0572 4.12541ZM79.5257 5.72461V9.37451H79.6257V5.72461H79.5257ZM79.5757 9.32451H78.2109V9.42451H79.5757V9.32451ZM78.2609 9.37451V5.62305H78.1609V9.37451H78.2609ZM78.2609 5.62305C78.2609 4.9113 78.1237 4.3683 77.8411 4.00239C77.5565 3.63404 77.1308 3.45293 76.5732 3.45293V3.55293C77.1075 3.55293 77.5006 3.72517 77.7619 4.06352C78.0252 4.40433 78.1609 4.92139 78.1609 5.62305H78.2609ZM76.5732 3.45293C76.0282 3.45293 75.5741 3.6785 75.214 4.12537L75.2919 4.18811C75.6342 3.76323 76.0604 3.55293 76.5732 3.55293V3.45293ZM75.2141 4.12518C74.8549 4.56667 74.6761 5.10076 74.6761 5.72461H74.7761C74.7761 5.12124 74.9485 4.61009 75.2917 4.1883L75.2141 4.12518ZM74.6761 5.72461V9.37451H74.7761V5.72461H74.6761ZM74.7261 9.32451H73.3613V9.42451H74.7261V9.32451ZM73.4113 9.37451V2.4873H73.3113V9.37451H73.4113ZM73.3613 2.5373H74.7261V2.4373H73.3613V2.5373ZM74.6761 2.4873V3.60449H74.7761V2.4873H74.6761ZM74.7713 3.62588C74.9534 3.24097 75.2263 2.93286 75.5908 2.70087L75.5371 2.61651C75.1569 2.85848 74.8712 3.1809 74.6809 3.58311L74.7713 3.62588ZM75.5908 2.70087C75.9544 2.46947 76.3724 2.35322 76.8462 2.35322V2.25322C76.3552 2.25322 75.9183 2.37395 75.5371 2.61651L75.5908 2.70087ZM76.8462 2.35322C77.4099 2.35322 77.8891 2.47843 78.286 2.72648L78.339 2.64168C77.9234 2.38192 77.425 2.25322 76.8462 2.25322V2.35322ZM78.286 2.72648C78.6827 2.97444 78.9876 3.33856 79.1998 3.82139L79.2914 3.78115C79.072 3.28221 78.7548 2.90153 78.339 2.64168L78.286 2.72648ZM79.2906 3.82313C79.511 3.36977 79.8245 3.01297 80.2311 2.75153L80.1771 2.66741C79.7543 2.93918 79.4288 3.31024 79.2006 3.77941L79.2906 3.82313ZM80.2314 2.75134C80.637 2.48647 81.1139 2.35322 81.6641 2.35322V2.25322C81.097 2.25322 80.6006 2.39081 80.1768 2.66761L80.2314 2.75134ZM81.6641 2.35322C82.5151 2.35322 83.1752 2.63418 83.6509 3.19258L83.727 3.12773C83.2294 2.54355 82.5395 2.25322 81.6641 2.25322V2.35322ZM83.6512 3.19288C84.1318 3.7481 84.3753 4.52424 84.3753 5.52783H84.4753C84.4753 4.50864 84.2279 3.70633 83.7268 3.12743L83.6512 3.19288ZM86.2153 4.49316L86.1692 4.47399L86.169 4.47437L86.2153 4.49316ZM86.9771 3.34424L87.0122 3.37983L87.0124 3.37959L86.9771 3.34424ZM88.1323 2.58252L88.1133 2.53628L88.1132 2.53634L88.1323 2.58252ZM91.4521 2.7793L91.4273 2.82269L91.4276 2.82283L91.4521 2.7793ZM92.7534 7.7876L92.7969 7.81233L92.797 7.81219L92.7534 7.7876ZM91.4521 9.08252L91.4276 9.03898L91.4273 9.03913L91.4521 9.08252ZM87.7134 9.08252L87.7381 9.03905L87.738 9.03899L87.7134 9.08252ZM86.4121 7.7876L86.3686 7.81219L86.3687 7.81233L86.4121 7.7876ZM87.9102 4.20752L87.874 4.173L87.8738 4.17318L87.9102 4.20752ZM87.9102 7.66064L87.8738 7.69499L87.874 7.69516L87.9102 7.66064ZM85.9924 5.93408C85.9924 5.4281 86.0823 4.95422 86.2617 4.51196L86.169 4.47437C85.9845 4.92925 85.8924 5.41597 85.8924 5.93408H85.9924ZM86.2615 4.51233C86.4453 4.06946 86.6956 3.69219 87.0122 3.37983L86.9419 3.30865C86.6152 3.63106 86.3577 4.01974 86.1692 4.474L86.2615 4.51233ZM87.0124 3.37959C87.3291 3.06292 87.7086 2.81256 88.1515 2.6287L88.1132 2.53634C87.659 2.72488 87.2683 2.98233 86.9417 3.30888L87.0124 3.37959ZM88.1513 2.62876C88.5978 2.44518 89.0758 2.35322 89.5859 2.35322V2.25322C89.0635 2.25322 88.5725 2.34746 88.1133 2.53628L88.1513 2.62876ZM89.5859 2.35322C90.2677 2.35322 90.8811 2.50998 91.4273 2.82269L91.477 2.73591C90.9145 2.41385 90.2837 2.25322 89.5859 2.25322V2.35322ZM91.4276 2.82283C91.974 3.13151 92.4012 3.55872 92.7099 4.10516L92.797 4.05597C92.4793 3.49369 92.039 3.05339 91.4767 2.73576L91.4276 2.82283ZM92.7099 4.10516C93.0185 4.65149 93.1731 5.26076 93.1731 5.93408H93.2731C93.2731 5.24477 93.1146 4.61836 92.797 4.05597L92.7099 4.10516ZM93.1731 5.93408C93.1731 6.6074 93.0185 7.21667 92.7099 7.76301L92.797 7.81219C93.1146 7.2498 93.2731 6.62339 93.2731 5.93408H93.1731ZM92.71 7.76286C92.4013 8.30509 91.9741 8.73025 91.4276 9.03899L91.4767 9.12605C92.0389 8.80848 92.4792 8.37037 92.7969 7.81233L92.71 7.76286ZM91.4273 9.03913C90.8811 9.35184 90.2677 9.50859 89.5859 9.50859V9.60859C90.2837 9.60859 90.9145 9.44797 91.477 9.12591L91.4273 9.03913ZM89.5859 9.50859C88.9042 9.50859 88.2886 9.35184 87.7381 9.03905L87.6887 9.12599C88.2554 9.44797 88.8882 9.60859 89.5859 9.60859V9.50859ZM87.738 9.03899C87.1914 8.73025 86.7642 8.30509 86.4556 7.76286L86.3687 7.81233C86.6863 8.37037 87.1266 8.80848 87.6888 9.12605L87.738 9.03899ZM86.4556 7.76301C86.147 7.21667 85.9924 6.6074 85.9924 5.93408H85.8924C85.8924 6.62339 86.0509 7.2498 86.3686 7.81219L86.4556 7.76301ZM91.2917 7.69499C91.7372 7.22359 91.9592 6.63542 91.9592 5.93408H91.8592C91.8592 6.6123 91.6453 7.17517 91.219 7.6263L91.2917 7.69499ZM91.9592 5.93408C91.9592 5.23275 91.7372 4.64457 91.2917 4.17318L91.219 4.24186C91.6453 4.693 91.8592 5.25586 91.8592 5.93408H91.9592ZM91.2917 4.17318C90.8457 3.7012 90.2757 3.46562 89.5859 3.46562V3.56563C90.2503 3.56563 90.7933 3.79132 91.219 4.24186L91.2917 4.17318ZM89.5859 3.46562C88.8961 3.46562 88.3242 3.70119 87.874 4.173L87.9463 4.24204C88.3764 3.79133 88.9216 3.56563 89.5859 3.56563V3.46562ZM87.8738 4.17318C87.4284 4.64457 87.2063 5.23275 87.2063 5.93408H87.3063C87.3063 5.25586 87.5202 4.693 87.9465 4.24186L87.8738 4.17318ZM87.2063 5.93408C87.2063 6.63542 87.4284 7.22359 87.8738 7.69499L87.9465 7.6263C87.5202 7.17517 87.3063 6.6123 87.3063 5.93408H87.2063ZM87.874 7.69516C88.3242 8.16698 88.8961 8.40254 89.5859 8.40254V8.30254C88.9216 8.30254 88.3764 8.07684 87.9463 7.62613L87.874 7.69516ZM89.5859 8.40254C90.2757 8.40254 90.8457 8.16697 91.2917 7.69499L91.219 7.6263C90.7933 8.07685 90.2503 8.30254 89.5859 8.30254V8.40254ZM100.041 2.4873V2.4373H99.9905V2.4873H100.041ZM101.405 2.4873H101.455V2.4373H101.405V2.4873ZM101.405 9.37451V9.42451H101.455V9.37451H101.405ZM100.041 9.37451H99.9905V9.42451H100.041V9.37451ZM100.041 8.25732H100.091L99.9955 8.23555L100.041 8.25732ZM99.1265 9.20312L99.1018 9.15961L99.1017 9.15971L99.1265 9.20312ZM95.5273 8.7207L95.4906 8.75464L95.4908 8.75479L95.5273 8.7207ZM94.7529 2.4873V2.4373H94.7029V2.4873H94.7529ZM96.1177 2.4873H96.1677V2.4373H96.1177V2.4873ZM99.4438 7.72412L99.4071 7.69024L99.4071 7.69025L99.4438 7.72412ZM100.041 2.5373H101.405V2.4373H100.041V2.5373ZM101.355 2.4873V9.37451H101.455V2.4873H101.355ZM101.405 9.32451H100.041V9.42451H101.405V9.32451ZM100.091 9.37451V8.25732H99.9905V9.37451H100.091ZM99.9955 8.23555C99.81 8.61903 99.5129 8.9271 99.1018 9.15961L99.1511 9.24664C99.5779 9.00519 99.8902 8.68273 100.086 8.2791L99.9955 8.23555ZM99.1017 9.15971C98.6954 9.39186 98.2281 9.50859 97.6982 9.50859V9.60859C98.2433 9.60859 98.7281 9.48835 99.1513 9.24654L99.1017 9.15971ZM97.6982 9.50859C96.7822 9.50859 96.073 9.23294 95.5639 8.68662L95.4908 8.75479C96.0227 9.32566 96.7608 9.60859 97.6982 9.60859V9.50859ZM95.5641 8.68677C95.059 8.14029 94.8029 7.35852 94.8029 6.33398H94.7029C94.7029 7.37455 94.9632 8.18393 95.4906 8.75464L95.5641 8.68677ZM94.8029 6.33398V2.4873H94.7029V6.33398H94.8029ZM94.7529 2.5373H96.1177V2.4373H94.7529V2.5373ZM96.0677 2.4873V6.24512H96.1677V2.4873H96.0677ZM96.0677 6.24512C96.0677 6.958 96.2233 7.50201 96.5434 7.86811C96.8646 8.23551 97.3438 8.41523 97.9712 8.41523V8.31523C97.3629 8.31523 96.9153 8.14161 96.6187 7.8023C96.3209 7.4617 96.1677 6.94564 96.1677 6.24512H96.0677ZM97.9712 8.41523C98.5732 8.41523 99.0775 8.19582 99.4806 7.75799L99.4071 7.69025C99.0231 8.10723 98.5456 8.31523 97.9712 8.31523V8.41523ZM99.4806 7.75801C99.8875 7.31648 100.091 6.77514 100.091 6.13721H99.9905C99.9905 6.75187 99.7958 7.26848 99.4071 7.69024L99.4806 7.75801ZM100.091 6.13721V2.4873H99.9905V6.13721H100.091ZM107.632 2.46191H107.682V2.42709L107.65 2.41501L107.632 2.46191ZM107.632 3.70605L107.617 3.7536L107.682 3.77492V3.70605H107.632ZM105.366 4.2583L105.403 4.29235L105.403 4.29217L105.366 4.2583ZM104.776 9.37451V9.42451H104.826V9.37451H104.776ZM103.411 9.37451H103.361V9.42451H103.411V9.37451ZM103.411 2.4873V2.4373H103.361V2.4873H103.411ZM104.776 2.4873H104.826V2.4373H104.776V2.4873ZM104.776 3.78857H104.726L104.822 3.8073L104.776 3.78857ZM105.601 2.74121L105.573 2.69997L105.573 2.70012L105.601 2.74121ZM107.582 2.46191V3.70605H107.682V2.46191H107.582ZM107.648 3.65851C107.458 3.59687 107.196 3.56719 106.864 3.56719V3.66719C107.192 3.66719 107.442 3.69674 107.617 3.7536L107.648 3.65851ZM106.864 3.56719C106.246 3.56719 105.733 3.78627 105.329 4.22443L105.403 4.29217C105.787 3.87552 106.272 3.66719 106.864 3.66719V3.56719ZM105.33 4.22425C104.927 4.65756 104.726 5.19695 104.726 5.83887H104.826C104.826 5.21971 105.019 4.7054 105.403 4.29235L105.33 4.22425ZM104.726 5.83887V9.37451H104.826V5.83887H104.726ZM104.776 9.32451H103.411V9.42451H104.776V9.32451ZM103.461 9.37451V2.4873H103.361V9.37451H103.461ZM103.411 2.5373H104.776V2.4373H103.411V2.5373ZM104.726 2.4873V3.78857H104.826V2.4873H104.726ZM104.822 3.8073C104.997 3.37578 105.266 3.03462 105.63 2.7823L105.573 2.70012C105.192 2.96408 104.911 3.32116 104.73 3.76985L104.822 3.8073ZM105.629 2.78245C105.997 2.5304 106.419 2.404 106.896 2.404V2.304C106.4 2.304 105.958 2.43574 105.573 2.69997L105.629 2.78245ZM106.896 2.404C107.189 2.404 107.428 2.4396 107.615 2.50881L107.65 2.41501C107.448 2.34035 107.196 2.304 106.896 2.304V2.404Z" fill="white"/>
</g>
<defs>
<clipPath id="clip0_226_16">
<rect width="108" height="50" fill="white"/>
</clipPath>
</defs>
</svg>
