<svg width="108" height="50" viewBox="0 0 108 50" fill="none" xmlns="http://www.w3.org/2000/svg">
<path d="M98.5791 1.58677C98.8163 1.58677 99.0197 1.51924 99.1891 1.35044C99.3585 1.18163 99.4263 1.01283 99.4263 0.776502C99.4263 0.540176 99.3585 0.371371 99.1891 0.236327C99.0197 0.101283 98.8163 0 98.5791 0C98.3419 0 98.1386 0.0675219 97.9692 0.236327C97.7997 0.405132 97.7319 0.573937 97.7319 0.810263C97.7319 1.04659 97.7997 1.21539 97.9692 1.3842C98.1725 1.51924 98.3419 1.58677 98.5791 1.58677Z" fill="#1C1C1C"/>
<path d="M37.2764 6.24609H32.1255V36.4284H37.2764V6.24609Z" fill="#1C1C1C"/>
<path d="M81.8724 24.3083C80.7541 23.9369 79.297 23.633 77.5348 23.3629C75.7727 23.0591 74.4849 22.7553 73.6377 22.3839C72.7905 22.0463 72.3839 21.4723 72.3839 20.6283C72.3839 19.8856 72.7905 19.2779 73.57 18.839C74.3494 18.4001 75.5016 18.1638 76.9926 18.1638C79.3309 18.1638 81.4319 18.7039 83.2957 19.818L85.2612 15.9355C84.3123 15.3616 83.0585 14.8889 81.5674 14.5513C80.0425 14.2137 78.5514 14.0449 77.0265 14.0449C74.0444 14.0449 71.7061 14.6526 69.9779 15.9018C68.2496 17.1509 67.3685 18.8052 67.3685 20.8984C67.3685 22.4852 67.7752 23.7343 68.6224 24.6121C69.4696 25.4899 70.4523 26.1313 71.6045 26.469C72.7567 26.8403 74.2138 27.1442 76.0438 27.4143C77.772 27.6844 79.0259 27.9882 79.8053 28.292C80.5847 28.5959 80.9914 29.1361 80.9914 29.8788C80.9914 31.4993 79.4664 32.3096 76.3826 32.3096C75.0271 32.3096 73.6716 32.107 72.2822 31.7019C70.8928 31.2968 69.7068 30.7904 68.724 30.1151L66.7585 33.9977C67.7752 34.7066 69.1307 35.2806 70.8251 35.7532C72.5194 36.2259 74.2816 36.4622 76.0438 36.4622C79.1275 36.4622 81.5336 35.8545 83.3296 34.6053C85.1256 33.39 86.0067 31.7357 86.0067 29.6762C86.0067 28.1232 85.6001 26.9078 84.7868 26.0638C83.9735 25.2536 83.0246 24.6459 81.8724 24.3083Z" fill="#1C1C1C"/>
<path d="M103.9 24.3083C102.781 23.9369 101.324 23.633 99.5619 23.3629C97.7998 23.0591 96.512 22.7553 95.6648 22.3839C94.8176 22.0463 94.411 21.4723 94.411 20.6283C94.411 19.8856 94.8176 19.2779 95.5971 18.839C96.3765 18.4001 97.5287 18.1638 99.0197 18.1638C101.358 18.1638 103.459 18.7039 105.323 19.818L107.288 15.9355C106.339 15.3616 105.086 14.8889 103.595 14.5513C102.07 14.2137 100.579 14.0449 99.0536 14.0449C96.0715 14.0449 93.7332 14.6526 92.005 15.9018C90.2767 17.1509 89.3956 18.8052 89.3956 20.8984C89.3956 22.4852 89.8023 23.7343 90.6495 24.6121C91.4967 25.4899 92.4794 26.1313 93.6316 26.469C94.7838 26.8403 96.2409 27.1442 98.0709 27.4143C99.7991 27.6844 101.053 27.9882 101.832 28.292C102.612 28.5959 103.018 29.1361 103.018 29.8788C103.018 31.4993 101.494 32.3096 98.4097 32.3096C97.0542 32.3096 95.6987 32.107 94.3093 31.7019C92.9199 31.2968 91.7339 30.7904 90.7511 30.1151L88.7856 33.9977C89.8023 34.7066 91.1578 35.2806 92.8522 35.7532C94.5465 36.2259 96.3087 36.4622 98.0709 36.4622C101.155 36.4622 103.561 35.8545 105.357 34.6053C107.153 33.39 108.034 31.7357 108.034 29.6762C108.034 28.1232 107.627 26.9078 106.814 26.0638C105.967 25.2536 105.018 24.6459 103.9 24.3083Z" fill="#1C1C1C"/>
<path d="M70.4525 8.70979C70.0119 8.70979 69.5714 8.64227 69.1647 8.50722C68.7242 8.37218 68.3853 8.20338 68.0803 8.00081L67.572 8.97988C67.877 9.2162 68.2498 9.38501 68.792 9.55381C69.3003 9.68886 69.8425 9.79014 70.3847 9.79014C71.2997 9.79014 72.0113 9.62134 72.5196 9.24997C73.0618 8.87859 73.299 8.40594 73.299 7.79824C73.299 7.32559 73.1635 6.98798 72.9263 6.71789C72.6891 6.4478 72.3841 6.279 72.0452 6.17772C71.7063 6.07643 71.2658 5.97515 70.7236 5.87387C70.3169 5.80635 69.978 5.73882 69.7747 5.6713C69.5375 5.60378 69.3681 5.5025 69.1986 5.40121C69.0292 5.26617 68.9614 5.09736 68.9614 4.86104C68.9614 4.59095 69.097 4.35462 69.3681 4.18582C69.6392 4.01701 70.0458 3.91573 70.5541 3.91573C71.2997 3.91573 71.9774 4.08454 72.5196 4.45591L73.0618 3.47684C72.7568 3.27427 72.3841 3.13923 71.9435 3.03795C71.503 2.93666 71.0286 2.86914 70.588 2.86914C69.7069 2.86914 69.0292 3.03795 68.5209 3.40932C68.0126 3.78069 67.7415 4.2871 67.7415 4.8948C67.7415 5.36745 67.877 5.73882 68.1142 6.00891C68.3514 6.279 68.6564 6.4478 68.9953 6.58285C69.3342 6.68413 69.7747 6.78541 70.3508 6.8867C70.7575 6.95422 71.0625 7.02174 71.2658 7.0555C71.4691 7.12302 71.6724 7.19055 71.808 7.32559C71.9435 7.46063 72.0113 7.59568 72.0113 7.79824C72.0791 8.40594 71.5369 8.70979 70.4525 8.70979Z" fill="#1C1C1C"/>
<path d="M75.5694 7.62999C75.5694 8.30521 75.7727 8.84538 76.1455 9.21675C76.5183 9.58812 77.0605 9.75693 77.7382 9.75693C78.0093 9.75693 78.2804 9.72317 78.5515 9.62188C78.8226 9.55436 79.026 9.41932 79.2293 9.28427L78.8565 8.40649C78.5854 8.60905 78.2804 8.71034 77.9077 8.71034C77.5688 8.71034 77.2977 8.60905 77.1282 8.40649C76.9588 8.20392 76.8571 7.93384 76.8571 7.56246V3.91628H78.8226V2.90345H76.8571V1.41797H75.5694V2.90345H74.4172V3.91628H75.5694V7.62999Z" fill="#1C1C1C"/>
<path d="M85.8035 6.41446C85.8035 7.12344 85.6002 7.69738 85.2274 8.06875C84.8547 8.47388 84.3463 8.64268 83.7025 8.64268C83.1264 8.64268 82.652 8.47388 82.347 8.13627C82.042 7.79866 81.8725 7.29225 81.8725 6.65079V2.90332H80.6526V6.81959C80.6526 7.79866 80.9237 8.5414 81.432 9.01406C81.9403 9.52047 82.6859 9.7568 83.5669 9.7568C84.0414 9.7568 84.4819 9.65551 84.8885 9.45295C85.2952 9.25038 85.6341 8.98029 85.8713 8.64268V9.65551H87.0235V2.90332H85.8035V6.41446Z" fill="#1C1C1C"/>
<path d="M90.4462 9.31761C90.9545 9.62146 91.5645 9.7565 92.2083 9.7565C92.7167 9.7565 93.1911 9.65522 93.5977 9.45265C94.0044 9.25009 94.3772 8.98 94.6483 8.60863V9.68898H95.8343V0.202148H94.6144V3.94962C94.3433 3.57824 94.0044 3.30816 93.5977 3.13935C93.1911 2.97055 92.7506 2.86926 92.2422 2.86926C91.5984 2.86926 90.9884 3.00431 90.4801 3.30816C89.9718 3.61201 89.5651 4.01714 89.2601 4.52355C88.9551 5.02997 88.8196 5.63766 88.8196 6.31288C88.8196 6.9881 88.9551 7.5958 89.2601 8.13598C89.4973 8.64239 89.904 9.04752 90.4462 9.31761ZM90.3106 5.06373C90.514 4.69236 90.7851 4.42227 91.1239 4.2197C91.4628 4.01714 91.8695 3.91585 92.31 3.91585C92.7505 3.91585 93.1233 4.01714 93.4622 4.2197C93.8011 4.42227 94.0722 4.69236 94.2755 5.06373C94.4788 5.4351 94.5805 5.84023 94.5805 6.31288C94.5805 6.78554 94.4788 7.19067 94.2755 7.56204C94.0722 7.93341 93.8011 8.2035 93.4622 8.40606C93.1233 8.60863 92.7167 8.70991 92.31 8.70991C91.8695 8.70991 91.4967 8.60863 91.1239 8.40606C90.7851 8.2035 90.514 7.93341 90.3106 7.56204C90.1073 7.19067 90.0056 6.78554 90.0056 6.31288C90.0056 5.84023 90.1073 5.40134 90.3106 5.06373Z" fill="#1C1C1C"/>
<path d="M99.189 2.90332H97.969V9.68928H99.189V2.90332Z" fill="#1C1C1C"/>
<path d="M102.646 9.31804C103.188 9.62189 103.798 9.75694 104.476 9.75694C105.154 9.75694 105.764 9.62189 106.306 9.31804C106.848 9.0142 107.255 8.60906 107.56 8.06889C107.865 7.52871 108 6.95478 108 6.27956C108 5.60434 107.865 5.0304 107.56 4.49023C107.255 3.95005 106.848 3.54492 106.306 3.27483C105.764 2.97098 105.154 2.83594 104.476 2.83594C103.798 2.83594 103.188 2.97098 102.646 3.27483C102.104 3.57868 101.697 3.98381 101.392 4.49023C101.087 5.0304 100.952 5.60434 100.952 6.27956C100.952 6.95478 101.087 7.52871 101.392 8.06889C101.697 8.60906 102.104 9.0142 102.646 9.31804ZM102.477 5.06416C102.68 4.69279 102.951 4.4227 103.29 4.22014C103.629 4.01757 104.035 3.91629 104.476 3.91629C104.917 3.91629 105.289 4.01757 105.662 4.22014C106.001 4.4227 106.272 4.69279 106.475 5.06416C106.679 5.43553 106.78 5.84066 106.78 6.31332C106.78 6.78597 106.679 7.1911 106.475 7.56247C106.272 7.93384 106.001 8.20393 105.662 8.4065C105.323 8.60906 104.917 8.71035 104.476 8.71035C104.035 8.71035 103.663 8.60906 103.29 8.4065C102.951 8.20393 102.68 7.93384 102.477 7.56247C102.273 7.1911 102.172 6.78597 102.172 6.31332C102.172 5.84066 102.273 5.40177 102.477 5.06416Z" fill="#1C1C1C"/>
<path d="M19.4516 38.2178C16.1984 38.2178 13.5552 40.8511 13.5552 44.0922C13.5552 47.3332 16.1984 49.9666 19.4516 49.9666C22.7048 49.9666 25.3481 47.3332 25.3481 44.0922C25.382 40.8511 22.7048 38.2178 19.4516 38.2178Z" fill="#1C1C1C"/>
<path d="M23.3147 9.75684C21.9931 9.75684 20.807 10.4658 20.1632 11.5124C18.1977 10.3983 15.8933 9.75684 13.4873 9.75684C6.032 9.75684 0 15.7663 0 23.1937C0 30.6211 6.032 36.6306 13.4873 36.6306C20.9426 36.6306 26.9746 30.6211 26.9746 23.1937C26.9746 20.7629 26.3307 18.5009 25.2124 16.5428C26.2629 15.9013 26.9746 14.7535 26.9746 13.403C26.9746 11.4111 25.348 9.75684 23.3147 9.75684ZM13.4873 31.4651C8.91246 31.4651 5.18481 27.7514 5.18481 23.1937C5.18481 18.636 8.91246 14.9223 13.4873 14.9223C18.0621 14.9223 21.7898 18.636 21.7898 23.1937C21.7898 27.7514 18.0621 31.4651 13.4873 31.4651Z" fill="#1C1C1C"/>
<path d="M59.8455 16.3739C58.3545 15.0572 56.3212 14.3145 53.7119 14.1119C53.2713 14.0781 52.7969 14.0781 52.2886 14.0781C51.848 14.0781 51.4414 14.0781 51.0008 14.1119C49.6114 14.1794 48.2898 14.4157 47.036 14.7871C45.3755 15.2598 43.9861 15.935 42.8 16.8128L43.7828 18.6359L44.8333 20.5602C45.6805 19.885 46.6971 19.3448 47.9171 18.9735C49.137 18.6021 50.357 18.3995 51.6108 18.3995C53.4408 18.3995 54.8301 18.8047 55.779 19.6149C56.7279 20.4252 57.1684 21.6068 57.1684 23.1598V23.4974H51.3736C48.1543 23.4974 45.816 24.1051 44.325 25.2868C43.5456 25.8945 42.9695 26.6372 42.5967 27.4475C42.2578 28.224 42.0884 29.068 42.0884 30.0133C42.0884 31.2625 42.4273 32.4103 43.105 33.3894C43.7828 34.4022 44.7655 35.1787 46.0194 35.7189C47.2732 36.2928 48.7304 36.5629 50.4248 36.5629C52.0852 36.5629 53.5424 36.2928 54.7285 35.7864C55.9146 35.28 56.8295 34.5373 57.4734 33.592V36.2591H62.421V24.1389V23.3624C62.4549 20.2564 61.5738 17.8931 59.8455 16.3739ZM57.2023 29.3381C56.7956 30.4184 56.0501 31.2625 55.0335 31.8702C54.0168 32.4441 52.8308 32.7479 51.543 32.7479C50.1875 32.7479 49.137 32.4779 48.3915 31.9377C47.646 31.3975 47.2732 30.6548 47.2732 29.7095C47.2732 27.7513 48.7981 26.806 51.8141 26.806H57.2362V29.3381H57.2023Z" fill="#1C1C1C"/>
</svg>
